<?xml version="1.0" encoding="utf-8"?>
<!-- Generator: Adobe Illustrator 22.1.0, SVG Export Plug-In . SVG Version: 6.00 Build 0)  -->
<svg version="1.0" id="Layer_1" xmlns="http://www.w3.org/2000/svg" xmlns:xlink="http://www.w3.org/1999/xlink" x="0px" y="0px"
	 viewBox="0 0 612 792" enable-background="new 0 0 612 792" xml:space="preserve">
<rect x="56.8" y="123.5" fill="#FFFFFF" stroke="#000000" stroke-miterlimit="10" width="150" height="128.1"/>
<path fill="#FFFFFF" stroke="#000000" stroke-miterlimit="10" d="M401,237.5H290.8c-6.6,0-12-5.4-12-12v-83.9c0-6.6,5.4-12,12-12
	H401c6.6,0,12,5.4,12,12v83.9C413,232.1,407.6,237.5,401,237.5z"/>
<ellipse fill="#FFFFFF" stroke="#000000" stroke-miterlimit="10" cx="146.3" cy="373.9" rx="71.9" ry="49.6"/>
<circle fill="#FFFFFF" stroke="#000000" stroke-miterlimit="10" cx="325.7" cy="380.1" r="55.7"/>
<polygon fill="#FFFFFF" stroke="#000000" stroke-miterlimit="10" points="193.7,655.9 103.1,658.4 55.8,581.2 98.9,501.6 
	189.5,499.1 236.8,576.3 "/>
<polygon fill="#FFFFFF" stroke="#000000" stroke-miterlimit="10" points="448.1,649.8 388.3,619.5 329.5,651.6 339.8,585.4 
	291.1,539.4 357.3,528.8 386,468.2 416.6,527.9 483,536.5 435.7,584 "/>
</svg>
